<svg xmlns="http://www.w3.org/2000/svg" xmlns:xlink="http://www.w3.org/1999/xlink" width="50" zoomAndPan="magnify" viewBox="0 0 37.5 37.499999" height="50" preserveAspectRatio="xMidYMid meet" version="1.0"><defs><clipPath id="10fb90734d"><path d="M 0 0 L 37.007812 0 L 37.007812 37.007812 L 0 37.007812 Z M 0 0 " clip-rule="nonzero"/></clipPath></defs><g clip-path="url(#10fb90734d)"><path fill="#ffffff" d="M 18.75 0 C 8.394531 0 0 8.394531 0 18.75 C 0 29.105469 8.394531 37.5 18.75 37.5 C 29.105469 37.5 37.5 29.105469 37.5 18.75 C 37.5 8.394531 29.105469 0 18.75 0 Z M 13.503906 26.59375 L 9.851562 26.59375 L 9.851562 14.898438 L 13.503906 14.898438 Z M 11.578125 13.433594 L 11.550781 13.433594 C 10.222656 13.433594 9.367188 12.539062 9.367188 11.402344 C 9.367188 10.246094 10.253906 9.375 11.601562 9.375 C 12.949219 9.375 13.777344 10.246094 13.804688 11.402344 C 13.8125 12.53125 12.957031 13.433594 11.578125 13.433594 Z M 28.125 26.59375 L 23.980469 26.59375 L 23.980469 20.542969 C 23.980469 18.960938 23.335938 17.878906 21.90625 17.878906 C 20.816406 17.878906 20.207031 18.609375 19.929688 19.3125 C 19.828125 19.5625 19.839844 19.914062 19.839844 20.273438 L 19.839844 26.59375 L 15.730469 26.59375 C 15.730469 26.59375 15.785156 15.871094 15.730469 14.898438 L 19.839844 14.898438 L 19.839844 16.734375 C 20.082031 15.929688 21.394531 14.789062 23.488281 14.789062 C 26.089844 14.789062 28.125 16.472656 28.125 20.089844 Z M 28.125 26.59375 " fill-opacity="1" fill-rule="nonzero"/></g></svg>