<svg xmlns="http://www.w3.org/2000/svg" xmlns:xlink="http://www.w3.org/1999/xlink" width="50" zoomAndPan="magnify" viewBox="0 0 37.5 37.499999" height="50" preserveAspectRatio="xMidYMid meet" version="1.0"><defs><clipPath id="3c71ae0127"><path d="M 0 0.0664062 L 37.007812 0.0664062 L 37.007812 37.007812 L 0 37.007812 Z M 0 0.0664062 " clip-rule="nonzero"/></clipPath></defs><g clip-path="url(#3c71ae0127)"><path fill="#ffffff" d="M 18.757812 0.078125 C 8.398438 0.078125 0 8.507812 0 18.90625 C 0 28.25 6.789062 36.007812 15.671875 37.476562 L 15.671875 24.710938 L 10.898438 24.710938 L 10.898438 19.121094 L 15.671875 19.121094 L 15.671875 15.0625 C 15.671875 10.660156 19.230469 7.675781 23.613281 7.675781 C 25.5625 7.675781 26.78125 7.96875 26.78125 7.96875 L 26.78125 12.664062 L 23.613281 12.664062 C 22.296875 12.664062 21.226562 13.738281 21.226562 15.0625 L 21.226562 19.121094 L 26.34375 19.121094 L 25.628906 24.710938 L 21.226562 24.710938 L 21.226562 37.558594 C 30.402344 36.335938 37.484375 28.445312 37.484375 18.90625 C 37.5 8.507812 29.101562 0.078125 18.757812 0.078125 Z M 18.757812 0.078125 " fill-opacity="1" fill-rule="nonzero"/></g></svg>